<svg width="38" height="29" viewBox="0 0 38 29" fill="none" xmlns="http://www.w3.org/2000/svg"><path d="M11.9167 20.5833L31.5833 0.916665C32.1944 0.305554 32.9722 0 33.9167 0C34.8611 0 35.6389 0.305554 36.25 0.916665C36.8611 1.52778 37.1667 2.30555 37.1667 3.25C37.1667 4.19444 36.8611 4.97222 36.25 5.58333L14.25 27.5833C13.5833 28.25 12.8056 28.5833 11.9167 28.5833C11.0278 28.5833 10.25 28.25 9.58333 27.5833L0.916665 18.9167C0.305554 18.3056 0 17.5278 0 16.5833C0 15.6389 0.305554 14.8611 0.916665 14.25C1.52778 13.6389 2.30556 13.3333 3.25 13.3333C4.19444 13.3333 4.97222 13.6389 5.58333 14.25L11.9167 20.5833Z" fill="#6FE910"/></svg>
