<svg width="91" height="91" viewBox="0 0 91 91" fill="none" xmlns="http://www.w3.org/2000/svg">
<path d="M84.401 54.5614L75.9635 46.1239C75.4361 45.5966 74.7209 45.3004 73.9751 45.3004C73.2293 45.3004 72.5141 45.5966 71.9867 46.1239L45.8501 72.2604V84.6748H58.2645L84.401 58.5382C84.9283 58.0108 85.2245 57.2956 85.2245 56.5498C85.2245 55.804 84.9283 55.0888 84.401 54.5614ZM55.9357 79.0498H51.4751V74.5892L65.5376 60.5267L69.9982 64.9873L55.9357 79.0498ZM73.9751 61.0104L69.5145 56.5498L73.9751 52.0892L78.4357 56.5498L73.9751 61.0104ZM51.4751 50.9248V39.6748H57.1001V50.9248H51.4751ZM40.2251 50.9248V34.0498H45.8501V50.9248H40.2251ZM28.9751 50.9248V22.7998H34.6001V50.9248H28.9751Z" fill="black"/>
<path d="M34.6001 84.6748H17.7251C16.2337 84.6733 14.8038 84.0802 13.7493 83.0256C12.6947 81.9711 12.1016 80.5412 12.1001 79.0498V11.5498C12.1016 10.0584 12.6947 8.62854 13.7493 7.57397C14.8038 6.5194 16.2337 5.92629 17.7251 5.9248H62.7251C64.2165 5.92629 65.6464 6.5194 66.7009 7.57397C67.7555 8.62854 68.3486 10.0584 68.3501 11.5498V39.6748H62.7251V11.5498H17.7251V79.0498H34.6001V84.6748Z" fill="black"/>
</svg>
