<svg width="109" height="108" viewBox="0 0 109 108" fill="none" xmlns="http://www.w3.org/2000/svg">
<path d="M56.8328 39.0957C58.6151 39.0957 60.3243 39.8037 61.5846 41.0639C62.8448 42.3242 63.5528 44.0334 63.5528 45.8157C63.5528 47.598 62.8448 49.3072 61.5846 50.5675C60.3243 51.8277 58.6151 52.5357 56.8328 52.5357C55.0506 52.5357 53.3413 51.8277 52.0811 50.5675C50.8208 49.3072 50.1128 47.598 50.1128 45.8157C50.1128 44.0334 50.8208 42.3242 52.0811 41.0639C53.3413 39.8037 55.0506 39.0957 56.8328 39.0957ZM56.8328 55.8957C64.2584 55.8957 70.2728 58.9029 70.2728 62.6157V65.9757H43.3928V62.6157C43.3928 58.9029 49.4072 55.8957 56.8328 55.8957Z" fill="black"/>
<path d="M57.085 96.3838V80.2558" stroke="black" stroke-width="4.032"/>
<circle cx="7.812" cy="7.812" r="5.796" transform="matrix(1 0 0 -1 49.2729 107.977)" stroke="black" stroke-width="4.032"/>
<path d="M91.842 78.9561L77.8748 70.8921" stroke="black" stroke-width="4.032"/>
<circle cx="7.812" cy="7.812" r="5.796" transform="matrix(0.5 -0.866025 -0.866025 -0.5 97.9751 91.5176)" stroke="black" stroke-width="4.032"/>
<path d="M94.866 35.8652L80.8987 43.9292" stroke="black" stroke-width="4.032"/>
<circle cx="7.812" cy="7.812" r="5.796" transform="matrix(-0.5 -0.866025 -0.866025 0.5 108.811 36.835)" stroke="black" stroke-width="4.032"/>
<path d="M57.085 12.2168V28.3448" stroke="black" stroke-width="4.032"/>
<circle cx="7.812" cy="7.812" r="5.796" transform="matrix(-1 0 0 1 64.897 0.624023)" stroke="black" stroke-width="4.032"/>
<path d="M20.8818 36.873L34.8491 44.937" stroke="black" stroke-width="4.032"/>
<circle cx="7.812" cy="7.812" r="5.796" transform="matrix(-0.5 0.866025 0.866025 0.5 14.7488 24.3115)" stroke="black" stroke-width="4.032"/>
<path d="M14.834 78.957L28.8012 70.893" stroke="black" stroke-width="4.032"/>
<circle cx="7.812" cy="7.812" r="5.796" transform="matrix(0.5 0.866025 0.866025 -0.5 0.888916 77.9873)" stroke="black" stroke-width="4.032"/>
</svg>
