<svg width="93" height="78" viewBox="0 0 93 78" fill="none" xmlns="http://www.w3.org/2000/svg">
<circle cx="77.4068" cy="16.6532" r="9.70591" fill="black"/>
<circle cx="40.0765" cy="67.4227" r="9.70591" fill="black"/>
<rect x="21.8037" y="33.2783" width="21.9005" height="2.48869" transform="rotate(-45 21.8037 33.2783)" fill="black"/>
<rect x="37.2898" y="35.0381" width="21.9005" height="2.48869" transform="rotate(-135 37.2898 35.0381)" fill="black"/>
<rect x="68.5913" y="57.1699" width="21.9005" height="2.48869" transform="rotate(-45 68.5913 57.1699)" fill="black"/>
<rect x="84.0771" y="58.9297" width="21.9005" height="2.48869" transform="rotate(-135 84.0771 58.9297)" fill="black"/>
<path d="M10.845 0.901751C10.5301 0.414773 9.88012 0.275242 9.39314 0.590098L1.45736 5.72099C0.970386 6.03584 0.830853 6.68586 1.14571 7.17284C1.46057 7.65981 2.11058 7.79935 2.59756 7.48449L9.65158 2.9237L14.2124 9.97772C14.5272 10.4647 15.1772 10.6042 15.6642 10.2894C16.1512 9.97452 16.2907 9.3245 15.9759 8.83753L10.845 0.901751ZM24.8954 65.6802C25.4758 64.8052 25.4764 64.8055 25.4768 64.8058C25.4769 64.8059 25.4772 64.8061 25.4773 64.8061C25.4774 64.8062 25.4771 64.806 25.4764 64.8056C25.4751 64.8047 25.4723 64.8028 25.468 64.7999C25.4594 64.794 25.445 64.7841 25.4248 64.7701C25.3846 64.742 25.3218 64.6974 25.2382 64.6358C25.071 64.5127 24.8208 64.3218 24.5022 64.0598C23.8649 63.5358 22.9544 62.7275 21.8876 61.6078C19.7541 59.3686 16.9956 55.8844 14.5438 50.9352C9.64901 41.0543 5.9337 25.2465 10.9898 1.69223L8.93662 1.25147C3.78912 25.2313 7.53989 41.5276 12.6621 51.8674C15.2188 57.0285 18.1065 60.6837 20.3672 63.0564C21.4974 64.2426 22.4709 65.1084 23.1684 65.6819C23.5171 65.9687 23.797 66.1825 23.993 66.3268C24.091 66.399 24.1681 66.4538 24.2224 66.4917C24.2495 66.5107 24.271 66.5254 24.2865 66.5359C24.2942 66.5412 24.3005 66.5455 24.3052 66.5487C24.3076 66.5503 24.3096 66.5516 24.3113 66.5527C24.3121 66.5532 24.313 66.5538 24.3134 66.5541C24.3142 66.5547 24.315 66.5551 24.8954 65.6802Z" fill="black"/>
<path d="M64.204 26.7284C64.4081 26.1856 64.1335 25.5801 63.5907 25.376L54.7453 22.0501C54.2025 21.846 53.5971 22.1206 53.393 22.6634C53.1889 23.2062 53.4635 23.8117 54.0063 24.0158L61.8688 26.9721L58.9125 34.8347C58.7084 35.3775 58.983 35.9829 59.5258 36.187C60.0686 36.3911 60.6741 36.1166 60.8781 35.5738L64.204 26.7284ZM44.3071 53.7345C45.3469 53.588 45.3469 53.5886 45.347 53.5891C45.347 53.5892 45.3471 53.5896 45.3471 53.5898C45.3471 53.5901 45.3472 53.5902 45.3471 53.59C45.3471 53.5895 45.3469 53.5881 45.3465 53.5856C45.3459 53.5806 45.3447 53.5714 45.3431 53.5581C45.3399 53.5316 45.3351 53.4888 45.3293 53.4306C45.3178 53.314 45.3028 53.1355 45.2906 52.9014C45.2661 52.433 45.2528 51.743 45.301 50.8805C45.3975 49.1545 45.7397 46.7469 46.7246 44.0461C48.6833 38.6744 53.2161 32.0489 63.6548 27.3151L62.7875 25.4026C51.8235 30.3746 46.8993 37.4369 44.7517 43.3266C43.6833 46.2565 43.31 48.8729 43.2043 50.7633C43.1514 51.709 43.1654 52.4752 43.1934 53.0111C43.2074 53.2791 43.225 53.4897 43.2395 53.6367C43.2467 53.7103 43.2532 53.7679 43.2581 53.8088C43.2606 53.8293 43.2627 53.8456 43.2642 53.8577C43.265 53.8637 43.2657 53.8686 43.2662 53.8725C43.2665 53.8744 43.2667 53.8761 43.2669 53.8775C43.267 53.8782 43.2671 53.8791 43.2672 53.8794C43.2673 53.8802 43.2674 53.8809 44.3071 53.7345Z" fill="black"/>
</svg>
